<mxfile host="app.diagrams.net" agent="Mozilla/5.0 (Windows NT 10.0; Win64; x64) AppleWebKit/537.36 (KHTML, like Gecko) Chrome/129.0.0.0 Safari/537.36 Edg/129.0.0.0" version="27.0.3">
  <diagram name="第 1 页" id="dHS4HcM5OpE4were0QTv">
    <mxGraphModel dx="1796" dy="1060" grid="1" gridSize="10" guides="1" tooltips="1" connect="1" arrows="1" fold="1" page="1" pageScale="1" pageWidth="827" pageHeight="1169" math="0" shadow="0">
      <root>
        <mxCell id="0" />
        <mxCell id="1" parent="0" />
        <mxCell id="wIUuPFmti2fKQQLoH150-15" style="edgeStyle=orthogonalEdgeStyle;rounded=0;orthogonalLoop=1;jettySize=auto;html=1;exitX=0.5;exitY=1;exitDx=0;exitDy=0;exitPerimeter=0;entryX=0.5;entryY=0;entryDx=0;entryDy=0;" edge="1" parent="1" source="wIUuPFmti2fKQQLoH150-1" target="wIUuPFmti2fKQQLoH150-2">
          <mxGeometry relative="1" as="geometry" />
        </mxCell>
        <mxCell id="wIUuPFmti2fKQQLoH150-1" value="&lt;font style=&quot;font-size: 22px;&quot;&gt;开始&lt;/font&gt;" style="strokeWidth=2;html=1;shape=mxgraph.flowchart.terminator;whiteSpace=wrap;" vertex="1" parent="1">
          <mxGeometry x="190" y="10" width="80" height="50" as="geometry" />
        </mxCell>
        <mxCell id="wIUuPFmti2fKQQLoH150-16" style="edgeStyle=orthogonalEdgeStyle;rounded=0;orthogonalLoop=1;jettySize=auto;html=1;exitX=0.5;exitY=1;exitDx=0;exitDy=0;entryX=0.5;entryY=0;entryDx=0;entryDy=0;" edge="1" parent="1" source="wIUuPFmti2fKQQLoH150-2" target="wIUuPFmti2fKQQLoH150-3">
          <mxGeometry relative="1" as="geometry" />
        </mxCell>
        <mxCell id="wIUuPFmti2fKQQLoH150-2" value="&lt;font style=&quot;font-size: 20px;&quot;&gt;进入到系统的用&lt;span style=&quot;background-color: transparent; color: light-dark(rgb(0, 0, 0), rgb(255, 255, 255));&quot;&gt;户&lt;/span&gt;&lt;/font&gt;&lt;div&gt;&lt;div&gt;&lt;font style=&quot;font-size: 20px;&quot;&gt;管理界面&lt;/font&gt;&lt;/div&gt;&lt;/div&gt;" style="rounded=1;whiteSpace=wrap;html=1;absoluteArcSize=1;arcSize=14;strokeWidth=2;" vertex="1" parent="1">
          <mxGeometry x="145" y="100" width="170" height="100" as="geometry" />
        </mxCell>
        <mxCell id="wIUuPFmti2fKQQLoH150-17" value="" style="edgeStyle=orthogonalEdgeStyle;rounded=0;orthogonalLoop=1;jettySize=auto;html=1;" edge="1" parent="1" source="wIUuPFmti2fKQQLoH150-3" target="wIUuPFmti2fKQQLoH150-5">
          <mxGeometry relative="1" as="geometry" />
        </mxCell>
        <mxCell id="wIUuPFmti2fKQQLoH150-3" value="&lt;span style=&quot;font-size: 20px;&quot;&gt;查看用户列表&lt;/span&gt;" style="rounded=1;whiteSpace=wrap;html=1;absoluteArcSize=1;arcSize=14;strokeWidth=2;" vertex="1" parent="1">
          <mxGeometry x="140" y="230" width="170" height="100" as="geometry" />
        </mxCell>
        <mxCell id="wIUuPFmti2fKQQLoH150-32" value="" style="edgeStyle=orthogonalEdgeStyle;rounded=0;orthogonalLoop=1;jettySize=auto;html=1;" edge="1" parent="1" source="wIUuPFmti2fKQQLoH150-4" target="wIUuPFmti2fKQQLoH150-13">
          <mxGeometry relative="1" as="geometry" />
        </mxCell>
        <mxCell id="wIUuPFmti2fKQQLoH150-36" value="&lt;font style=&quot;font-size: 20px;&quot;&gt;是&lt;/font&gt;" style="edgeLabel;html=1;align=center;verticalAlign=middle;resizable=0;points=[];" vertex="1" connectable="0" parent="wIUuPFmti2fKQQLoH150-32">
          <mxGeometry x="-0.1569" y="3" relative="1" as="geometry">
            <mxPoint as="offset" />
          </mxGeometry>
        </mxCell>
        <mxCell id="wIUuPFmti2fKQQLoH150-4" value="&lt;font style=&quot;font-size: 18px;&quot;&gt;新增用户&lt;/font&gt;" style="strokeWidth=2;html=1;shape=mxgraph.flowchart.decision;whiteSpace=wrap;" vertex="1" parent="1">
          <mxGeometry x="175" y="980" width="100" height="100" as="geometry" />
        </mxCell>
        <mxCell id="wIUuPFmti2fKQQLoH150-19" value="" style="edgeStyle=orthogonalEdgeStyle;rounded=0;orthogonalLoop=1;jettySize=auto;html=1;" edge="1" parent="1" source="wIUuPFmti2fKQQLoH150-5" target="wIUuPFmti2fKQQLoH150-9">
          <mxGeometry relative="1" as="geometry" />
        </mxCell>
        <mxCell id="wIUuPFmti2fKQQLoH150-20" value="是" style="edgeLabel;html=1;align=center;verticalAlign=middle;resizable=0;points=[];fontSize=20;" vertex="1" connectable="0" parent="wIUuPFmti2fKQQLoH150-19">
          <mxGeometry x="-0.18" y="1" relative="1" as="geometry">
            <mxPoint as="offset" />
          </mxGeometry>
        </mxCell>
        <mxCell id="wIUuPFmti2fKQQLoH150-21" value="" style="edgeStyle=orthogonalEdgeStyle;rounded=0;orthogonalLoop=1;jettySize=auto;html=1;" edge="1" parent="1" source="wIUuPFmti2fKQQLoH150-5" target="wIUuPFmti2fKQQLoH150-6">
          <mxGeometry relative="1" as="geometry" />
        </mxCell>
        <mxCell id="wIUuPFmti2fKQQLoH150-22" value="否" style="edgeLabel;html=1;align=center;verticalAlign=middle;resizable=0;points=[];fontSize=18;" vertex="1" connectable="0" parent="wIUuPFmti2fKQQLoH150-21">
          <mxGeometry x="-0.12" y="1" relative="1" as="geometry">
            <mxPoint as="offset" />
          </mxGeometry>
        </mxCell>
        <mxCell id="wIUuPFmti2fKQQLoH150-5" value="&lt;font style=&quot;font-size: 18px;&quot;&gt;新增用户&lt;/font&gt;" style="strokeWidth=2;html=1;shape=mxgraph.flowchart.decision;whiteSpace=wrap;" vertex="1" parent="1">
          <mxGeometry x="175" y="380" width="100" height="100" as="geometry" />
        </mxCell>
        <mxCell id="wIUuPFmti2fKQQLoH150-23" value="" style="edgeStyle=orthogonalEdgeStyle;rounded=0;orthogonalLoop=1;jettySize=auto;html=1;" edge="1" parent="1" source="wIUuPFmti2fKQQLoH150-6" target="wIUuPFmti2fKQQLoH150-10">
          <mxGeometry relative="1" as="geometry" />
        </mxCell>
        <mxCell id="wIUuPFmti2fKQQLoH150-24" value="是" style="edgeLabel;html=1;align=center;verticalAlign=middle;resizable=0;points=[];fontSize=19;" vertex="1" connectable="0" parent="wIUuPFmti2fKQQLoH150-23">
          <mxGeometry x="-0.1569" relative="1" as="geometry">
            <mxPoint as="offset" />
          </mxGeometry>
        </mxCell>
        <mxCell id="wIUuPFmti2fKQQLoH150-25" value="" style="edgeStyle=orthogonalEdgeStyle;rounded=0;orthogonalLoop=1;jettySize=auto;html=1;" edge="1" parent="1" source="wIUuPFmti2fKQQLoH150-6" target="wIUuPFmti2fKQQLoH150-7">
          <mxGeometry relative="1" as="geometry" />
        </mxCell>
        <mxCell id="wIUuPFmti2fKQQLoH150-26" value="否" style="edgeLabel;html=1;align=center;verticalAlign=middle;resizable=0;points=[];fontSize=20;" vertex="1" connectable="0" parent="wIUuPFmti2fKQQLoH150-25">
          <mxGeometry x="-0.1911" y="-4" relative="1" as="geometry">
            <mxPoint as="offset" />
          </mxGeometry>
        </mxCell>
        <mxCell id="wIUuPFmti2fKQQLoH150-6" value="&lt;font style=&quot;font-size: 18px;&quot;&gt;新增用户&lt;/font&gt;" style="strokeWidth=2;html=1;shape=mxgraph.flowchart.decision;whiteSpace=wrap;" vertex="1" parent="1">
          <mxGeometry x="175" y="535" width="100" height="100" as="geometry" />
        </mxCell>
        <mxCell id="wIUuPFmti2fKQQLoH150-27" value="" style="edgeStyle=orthogonalEdgeStyle;rounded=0;orthogonalLoop=1;jettySize=auto;html=1;" edge="1" parent="1" source="wIUuPFmti2fKQQLoH150-7" target="wIUuPFmti2fKQQLoH150-11">
          <mxGeometry relative="1" as="geometry" />
        </mxCell>
        <mxCell id="wIUuPFmti2fKQQLoH150-28" value="是" style="edgeLabel;html=1;align=center;verticalAlign=middle;resizable=0;points=[];fontSize=20;" vertex="1" connectable="0" parent="wIUuPFmti2fKQQLoH150-27">
          <mxGeometry x="-0.2492" y="2" relative="1" as="geometry">
            <mxPoint as="offset" />
          </mxGeometry>
        </mxCell>
        <mxCell id="wIUuPFmti2fKQQLoH150-29" value="" style="edgeStyle=orthogonalEdgeStyle;rounded=0;orthogonalLoop=1;jettySize=auto;html=1;" edge="1" parent="1" source="wIUuPFmti2fKQQLoH150-7" target="wIUuPFmti2fKQQLoH150-8">
          <mxGeometry relative="1" as="geometry" />
        </mxCell>
        <mxCell id="wIUuPFmti2fKQQLoH150-33" value="&lt;font style=&quot;font-size: 20px;&quot;&gt;否&lt;/font&gt;" style="edgeLabel;html=1;align=center;verticalAlign=middle;resizable=0;points=[];" vertex="1" connectable="0" parent="wIUuPFmti2fKQQLoH150-29">
          <mxGeometry x="-0.352" y="1" relative="1" as="geometry">
            <mxPoint as="offset" />
          </mxGeometry>
        </mxCell>
        <mxCell id="wIUuPFmti2fKQQLoH150-7" value="&lt;font style=&quot;font-size: 18px;&quot;&gt;新增用户&lt;/font&gt;" style="strokeWidth=2;html=1;shape=mxgraph.flowchart.decision;whiteSpace=wrap;" vertex="1" parent="1">
          <mxGeometry x="175" y="680" width="100" height="100" as="geometry" />
        </mxCell>
        <mxCell id="wIUuPFmti2fKQQLoH150-30" value="" style="edgeStyle=orthogonalEdgeStyle;rounded=0;orthogonalLoop=1;jettySize=auto;html=1;" edge="1" parent="1" source="wIUuPFmti2fKQQLoH150-8" target="wIUuPFmti2fKQQLoH150-4">
          <mxGeometry relative="1" as="geometry" />
        </mxCell>
        <mxCell id="wIUuPFmti2fKQQLoH150-35" value="&lt;font style=&quot;font-size: 20px;&quot;&gt;否&lt;/font&gt;" style="edgeLabel;html=1;align=center;verticalAlign=middle;resizable=0;points=[];" vertex="1" connectable="0" parent="wIUuPFmti2fKQQLoH150-30">
          <mxGeometry x="-0.216" y="1" relative="1" as="geometry">
            <mxPoint as="offset" />
          </mxGeometry>
        </mxCell>
        <mxCell id="wIUuPFmti2fKQQLoH150-31" value="" style="edgeStyle=orthogonalEdgeStyle;rounded=0;orthogonalLoop=1;jettySize=auto;html=1;" edge="1" parent="1" source="wIUuPFmti2fKQQLoH150-8" target="wIUuPFmti2fKQQLoH150-12">
          <mxGeometry relative="1" as="geometry" />
        </mxCell>
        <mxCell id="wIUuPFmti2fKQQLoH150-34" value="&lt;font style=&quot;font-size: 20px;&quot;&gt;是&lt;/font&gt;" style="edgeLabel;html=1;align=center;verticalAlign=middle;resizable=0;points=[];" vertex="1" connectable="0" parent="wIUuPFmti2fKQQLoH150-31">
          <mxGeometry x="-0.4954" y="5" relative="1" as="geometry">
            <mxPoint as="offset" />
          </mxGeometry>
        </mxCell>
        <mxCell id="wIUuPFmti2fKQQLoH150-8" value="&lt;font style=&quot;font-size: 18px;&quot;&gt;新增用户&lt;/font&gt;" style="strokeWidth=2;html=1;shape=mxgraph.flowchart.decision;whiteSpace=wrap;" vertex="1" parent="1">
          <mxGeometry x="175" y="830" width="100" height="100" as="geometry" />
        </mxCell>
        <mxCell id="wIUuPFmti2fKQQLoH150-9" value="&lt;span style=&quot;font-size: 20px;&quot;&gt;输入用户信息&lt;/span&gt;&lt;div&gt;&lt;span style=&quot;font-size: 20px;&quot;&gt;并保存&lt;/span&gt;&lt;/div&gt;" style="rounded=1;whiteSpace=wrap;html=1;absoluteArcSize=1;arcSize=14;strokeWidth=2;" vertex="1" parent="1">
          <mxGeometry x="340" y="380" width="170" height="100" as="geometry" />
        </mxCell>
        <mxCell id="wIUuPFmti2fKQQLoH150-10" value="&lt;span style=&quot;font-size: 20px;&quot;&gt;修改用户信息&lt;/span&gt;&lt;div&gt;&lt;span style=&quot;font-size: 20px;&quot;&gt;并保存&lt;/span&gt;&lt;/div&gt;" style="rounded=1;whiteSpace=wrap;html=1;absoluteArcSize=1;arcSize=14;strokeWidth=2;" vertex="1" parent="1">
          <mxGeometry x="340" y="535" width="170" height="100" as="geometry" />
        </mxCell>
        <mxCell id="wIUuPFmti2fKQQLoH150-11" value="&lt;span style=&quot;font-size: 20px;&quot;&gt;删除用户信息&lt;/span&gt;&lt;div&gt;&lt;span style=&quot;font-size: 20px;&quot;&gt;并保存&lt;/span&gt;&lt;/div&gt;" style="rounded=1;whiteSpace=wrap;html=1;absoluteArcSize=1;arcSize=14;strokeWidth=2;" vertex="1" parent="1">
          <mxGeometry x="340" y="680" width="170" height="100" as="geometry" />
        </mxCell>
        <mxCell id="wIUuPFmti2fKQQLoH150-12" value="&lt;span style=&quot;font-size: 20px;&quot;&gt;浏览并选择本地Excel文件&lt;/span&gt;" style="rounded=1;whiteSpace=wrap;html=1;absoluteArcSize=1;arcSize=14;strokeWidth=2;" vertex="1" parent="1">
          <mxGeometry x="340" y="830" width="170" height="100" as="geometry" />
        </mxCell>
        <mxCell id="wIUuPFmti2fKQQLoH150-13" value="&lt;span style=&quot;font-size: 20px;&quot;&gt;选择用户并导出&lt;/span&gt;" style="rounded=1;whiteSpace=wrap;html=1;absoluteArcSize=1;arcSize=14;strokeWidth=2;" vertex="1" parent="1">
          <mxGeometry x="340" y="980" width="170" height="100" as="geometry" />
        </mxCell>
        <mxCell id="wIUuPFmti2fKQQLoH150-14" value="&lt;font style=&quot;font-size: 22px;&quot;&gt;结束&lt;/font&gt;" style="strokeWidth=2;html=1;shape=mxgraph.flowchart.terminator;whiteSpace=wrap;" vertex="1" parent="1">
          <mxGeometry x="570" y="1100" width="80" height="50" as="geometry" />
        </mxCell>
        <mxCell id="wIUuPFmti2fKQQLoH150-37" style="edgeStyle=orthogonalEdgeStyle;rounded=0;orthogonalLoop=1;jettySize=auto;html=1;exitX=0.5;exitY=1;exitDx=0;exitDy=0;exitPerimeter=0;entryX=0;entryY=0.5;entryDx=0;entryDy=0;entryPerimeter=0;" edge="1" parent="1" source="wIUuPFmti2fKQQLoH150-4" target="wIUuPFmti2fKQQLoH150-14">
          <mxGeometry relative="1" as="geometry" />
        </mxCell>
        <mxCell id="wIUuPFmti2fKQQLoH150-38" value="&lt;font style=&quot;font-size: 20px;&quot;&gt;否&lt;/font&gt;" style="edgeLabel;html=1;align=center;verticalAlign=middle;resizable=0;points=[];" vertex="1" connectable="0" parent="wIUuPFmti2fKQQLoH150-37">
          <mxGeometry x="0.0072" y="-1" relative="1" as="geometry">
            <mxPoint as="offset" />
          </mxGeometry>
        </mxCell>
      </root>
    </mxGraphModel>
  </diagram>
</mxfile>
